#!OML:ASF E:\VariousWalksJay\Project 1\Capture day 1\Session 1\Actor2.ASF
:FULLY-SPECIFIED
:DEGREES
2724
root 22.5665 17.3187 -0.991385 366.277 2.76938 -5.60035
lowerback -7.86116 -1.54095 4.46035
upperback -7.32562 -2.26593 0.0378464
thorax -3.3886 -1.32929 -2.56146
lowerneck -2.08044 -4.19603 -4.52528
upperneck 8.62541 -6.29573 9.95295
head 3.35583 -2.90667 3.5207
rclavicle -6.48038e-014 1.94809e-014
rhumerus -52.7349 29.4886 -95.0806
rradius 67.0673
rwrist 4.11197
rhand -27.1183 0.247044
rfingers 7.12502
rthumb -0.534388 -29.732
lclavicle -6.48038e-014 1.94809e-014
lhumerus -55.942 -42.1688 95.9798
lradius 67.4673
lwrist 12.8475
lhand -23.8205 -17.4844
lfingers 7.12502
lthumb 2.65071 12.4788
rfemur -15.0884 -1.19522 25.3562
rtibia 31.7588
rfoot -22.4684 -12.1421
rtoes -2.94219
lfemur -13.4339 3.35203 -13.5841
ltibia 28.0283
lfoot -21.6515 0.711756
ltoes -0.391701
2725
root 22.5645 17.3189 -0.993308 366.238 2.6721 -5.61085
lowerback -7.77369 -1.50867 4.48648
upperback -7.29192 -2.2213 0.0243229
thorax -3.39964 -1.30815 -2.58607
lowerneck -2.09825 -4.17611 -4.49104
upperneck 8.70873 -6.27581 9.94068
head 3.38078 -2.89381 3.51154
rclavicle -1.37161e-014 1.31198e-014
rhumerus -52.6723 29.5122 -95.0858
rradius 66.9887
rwrist 4.10933
rhand -27.1193 0.263843
rfingers 7.12502
rthumb -0.535297 -29.7152
lclavicle -1.37161e-014 1.31198e-014
lhumerus -55.9291 -42.1549 95.9069
lradius 67.4832
lwrist 12.8403
lhand -23.9205 -17.5227
lfingers 7.12502
lthumb 2.55409 12.4417
rfemur -15.0582 -1.14632 25.3647
rtibia 31.7627
rfoot -22.4736 -12.1178
rtoes -2.91857
lfemur -13.3638 3.31384 -13.5739
ltibia 28.0151
lfoot -21.6892 0.841239
ltoes -0.421236
2726
root 22.5628 17.3198 -0.997438 366.257 2.59522 -5.60132
lowerback -7.57966 -1.49252 4.47587
upperback -7.38064 -2.18767 0.0352586
thorax -3.59731 -1.29622 -2.55901
lowerneck -2.02845 -4.14995 -4.50216
upperneck 8.80465 -6.24637 9.90902
head 3.39482 -2.88069 3.50623
rclavicle -1.43125e-014 -1.39149e-014
rhumerus -52.8478 29.5407 -95.156
rradius 66.981
rwrist 4.11798
rhand -27.1201 0.253281
rfingers 7.12502
rthumb -0.536102 -29.7258
lclavicle -1.43125e-014 -1.39149e-014
lhumerus -56.0501 -42.0932 95.9888
lradius 67.4637
lwrist 12.8244
lhand -23.9134 -17.4965
lfingers 7.12502
lthumb 2.56098 12.4679
rfemur -15.1031 -1.14172 25.3536
rtibia 31.7697
rfoot -22.4469 -12.0672
rtoes -2.92125
lfemur -13.374 3.32765 -13.5944
ltibia 27.9995
lfoot -21.6884 0.933571
ltoes -0.507688
2727
root 22.5611 17.3206 -1.00062 366.262 2.59375 -5.56263
lowerback -7.53817 -1.48928 4.4575
upperback -7.31678 -2.18272 0.00520011
thorax -3.55263 -1.29175 -2.5798
lowerneck -2.18153 -4.15097 -4.42523
upperneck 8.87103 -6.24958 9.86456
head 3.43702 -2.87556 3.47622
rclavicle -2.0773e-014 -7.95139e-016
rhumerus -52.7062 29.5526 -95.124
rradius 66.9396
rwrist 4.10146
rhand -27.1068 0.229305
rfingers 7.12502
rthumb -0.523286 -29.7498
lclavicle -2.0773e-014 -7.95139e-016
lhumerus -55.8493 -42.1308 95.8363
lradius 67.4161
lwrist 12.8062
lhand -23.9044 -17.467
lfingers 7.12502
lthumb 2.56973 12.4973
rfemur -15.1158 -1.19234 25.3189
rtibia 31.7699
rfoot -22.4338 -12.0468
rtoes -2.94774
lfemur -13.3818 3.31835 -13.6322
ltibia 27.99
lfoot -21.6802 0.939884
ltoes -0.445856
2728
root 22.5592 17.3206 -1.00283 366.238 2.52762 -5.56752
lowerback -7.49028 -1.46802 4.46202
upperback -7.31933 -2.15237 0.00471365
thorax -3.57967 -1.2774 -2.5801
lowerneck -1.97287 -4.11415 -4.44239
upperneck 8.82723 -6.20124 9.88439
head 3.38634 -2.85839 3.49213
rclavicle -8.44835e-015 -1.70955e-014
rhumerus -52.7445 29.5494 -95.1606
rradius 66.8884
rwrist 4.10457
rhand -27.0635 0.230745
rfingers 7.12502
rthumb -0.481375 -29.7485
lclavicle -8.44835e-015 -1.70955e-014
lhumerus -55.9163 -42.1146 95.8608
lradius 67.4203
lwrist 12.7852
lhand -23.8607 -17.4512
lfingers 7.12502
lthumb 2.61187 12.5126
rfemur -15.1007 -1.13643 25.3293
rtibia 31.7696
rfoot -22.4145 -12.0793
rtoes -3.0537
lfemur -13.3495 3.33502 -13.6267
ltibia 27.9854
lfoot -21.6647 1.01156
ltoes -0.505334
2729
root 22.5571 17.3206 -1.00637 366.245 2.49178 -5.57093
lowerback -7.52854 -1.45472 4.47
upperback -7.22634 -2.13944 -0.00493465
thorax -3.45975 -1.26748 -2.59737
lowerneck -2.03792 -4.10978 -4.38674
upperneck 8.80207 -6.19173 9.85636
head 3.38661 -2.85158 3.47353
rclavicle 1.10325e-014 -7.95139e-016
rhumerus -52.5879 29.5889 -95.1135
rradius 66.8139
rwrist 4.21557
rhand -27.1125 0.274976
rfingers 7.12502
rthumb -0.52879 -29.7041
lclavicle 1.10325e-014 -7.95139e-016
lhumerus -55.6977 -42.1529 95.6966
lradius 67.391
lwrist 12.8412
lhand -23.969 -17.4677
lfingers 7.12502
lthumb 2.50733 12.4973
rfemur -15.125 -1.12183 25.3411
rtibia 31.767
rfoot -22.3915 -12.0997
rtoes -3.15905
lfemur -13.3623 3.35118 -13.6231
ltibia 27.9794
lfoot -21.6685 1.07174
ltoes -0.58379
2730
root 22.5535 17.3213 -1.01108 366.262 2.46967 -5.61996
lowerback -7.47786 -1.4455 4.50349
upperback -7.22517 -2.1259 0.0154788
thorax -3.48627 -1.26215 -2.59277
lowerneck -1.91758 -4.09587 -4.413
upperneck 8.77166 -6.17185 9.86143
head 3.35675 -2.8465 3.48306
rclavicle 3.97569e-016 -3.57812e-015
rhumerus -52.5896 29.5914 -95.1026
rradius 66.8246
rwrist 4.11757
rhand -27.0566 0.230257
rfingers 7.12502
rthumb -0.474767 -29.749
lclavicle 3.97569e-016 -3.57812e-015
lhumerus -55.6888 -42.14 95.6915
lradius 67.3918
lwrist 12.8294
lhand -23.9363 -17.4496
lfingers 7.12502
lthumb 2.53886 12.515
rfemur -15.1632 -1.05921 25.4117
rtibia 31.7623
rfoot -22.3832 -12.1277
rtoes -3.0672
lfemur -13.3968 3.37042 -13.5558
ltibia 27.9782
lfoot -21.6487 1.07908
ltoes -0.544804
